<svg width="117" height="58" viewBox="0 0 117 58" fill="none" xmlns="http://www.w3.org/2000/svg">
<g clip-path="url(#clip0_440_4409)">
<path d="M105.898 0H11.1016C4.97037 0 0 5.00143 0 11.171V46.829C0 52.9986 4.97037 58 11.1016 58H105.898C112.03 58 117 52.9986 117 46.829V11.171C117 5.00143 112.03 0 105.898 0Z" fill="#FFCA05"/>
<path d="M43.0419 35.4912C42.4207 37.6348 41.7982 39.777 41.1784 41.9206C40.7157 43.5189 40.2585 45.1185 39.7971 46.7182C39.4942 47.7711 38.805 48.3206 37.7252 48.3765C36.551 48.4367 35.7812 47.985 35.3948 46.9209C34.247 43.7552 33.1214 40.5824 31.9903 37.4111C31.4317 35.845 30.8716 34.2789 30.3214 32.7086C29.9128 31.5424 30.2783 30.6307 31.3247 30.291C32.3766 29.9498 33.7843 30.1483 34.1887 31.3984C35.1072 34.237 36.0771 37.0601 37.0249 39.8889C37.0554 39.9798 37.0554 40.0972 37.1152 40.1574C37.2903 40.3321 37.4751 40.5838 37.6794 40.6062C37.8114 40.6216 38.0434 40.314 38.124 40.1098C38.2561 39.7756 38.2991 39.4065 38.3811 39.0527C39.1913 35.5905 40.0056 32.1283 40.8032 28.6633C40.8644 28.3991 40.8699 28.0928 40.8032 27.8328C39.9542 24.5971 39.0857 21.367 38.2213 18.1342C38.2019 18.06 38.1991 17.9692 38.1546 17.916C37.9934 17.7259 37.8183 17.5483 37.6488 17.3665C37.4695 17.5357 37.1986 17.6727 37.1263 17.8797C36.544 19.5408 36.0007 21.2146 35.4435 22.8842C35.0071 24.1902 34.5833 25.5018 34.1219 26.7994C33.8496 27.5685 33.077 27.9558 32.057 27.9013C31.1023 27.8509 30.37 27.3559 30.2227 26.5533C30.1532 26.18 30.1963 25.7423 30.3227 25.3815C31.9722 20.6721 33.6606 15.9752 35.3073 11.2643C35.8687 9.65627 37.2263 9.35984 38.4603 9.73458C39.2232 9.9653 39.5998 10.5708 39.8138 11.3147C40.8352 14.8789 41.8691 18.439 42.8988 22.0004C42.9488 22.1738 43.0113 22.3444 43.1169 22.666C43.6297 20.8888 44.098 19.264 44.5663 17.6378C45.1805 15.5068 45.7878 13.3757 46.4103 11.2475C46.7285 10.1597 47.4192 9.6339 48.5392 9.58496C49.6245 9.53742 50.4249 10.0688 50.8071 11.1399C52.5135 15.9109 54.2144 20.6833 55.9056 25.4598C56.3377 26.6806 55.8166 27.5601 54.5368 27.8467C53.3056 28.1222 52.3968 27.6048 52.0021 26.4093C51.0836 23.6309 50.1637 20.8524 49.2451 18.074C49.2215 18.0013 49.2104 17.9104 49.1604 17.8629C48.9839 17.6937 48.8074 17.4448 48.6031 17.4154C48.4739 17.3973 48.2113 17.6909 48.1557 17.8867C47.5734 19.9464 47.019 22.0144 46.4631 24.0811C46.1352 25.299 45.7989 26.5156 45.5043 27.7419C45.4223 28.0802 45.4028 28.469 45.4793 28.806C46.3283 32.5143 47.1941 36.2183 48.0848 39.9182C48.1501 40.1867 48.4336 40.4021 48.6156 40.6426C48.8143 40.4202 49.1089 40.2315 49.1979 39.9714C50.1525 37.186 51.0752 34.3894 52.0049 31.5942C52.4718 30.1903 54.1449 29.6491 55.3539 30.5119C56 30.9733 56.2001 31.7018 55.8972 32.5576C55.1107 34.7753 54.32 36.9916 53.5293 39.2065C52.6288 41.7276 51.7325 44.2502 50.8265 46.7699C50.4124 47.9207 49.669 48.4213 48.4794 48.3765C47.3678 48.3346 46.7285 47.8074 46.3811 46.6189C45.3 42.9134 44.2244 39.2065 43.1461 35.4996C43.1128 35.4954 43.078 35.4912 43.0447 35.487L43.0419 35.4912Z" fill="black"/>
<path d="M96.4796 41.1203C96.4796 42.8597 96.4935 44.5657 96.4754 46.2702C96.4587 47.7957 95.0705 48.7634 93.7156 48.1901C92.8777 47.8363 92.4525 47.1413 92.4497 46.2436C92.4358 41.5831 92.433 36.924 92.4483 32.2634C92.4525 31.0204 93.3571 30.1534 94.548 30.1632C95.6291 30.173 96.474 31.0987 96.4796 32.3026C96.4879 33.9484 96.481 35.5942 96.481 37.2847H103.649C103.649 37.0582 103.649 36.8527 103.649 36.6471C103.649 35.1901 103.642 33.7317 103.65 32.2746C103.657 31.0232 104.538 30.0541 105.65 30.0527C106.767 30.0513 107.681 31.0008 107.685 32.2453C107.699 36.924 107.699 41.6041 107.683 46.2828C107.678 47.4448 106.739 48.3774 105.665 48.376C104.552 48.3732 103.657 47.4308 103.651 46.2282C103.643 44.5419 103.649 42.8556 103.649 41.1175H96.4796V41.1203Z" fill="black"/>
<path d="M18.6639 13.2953C16.139 13.2953 13.6974 13.2953 11.2572 13.2953C10.1831 13.2953 9.39237 12.6073 9.31038 11.6047C9.23396 10.6706 9.93432 9.82328 10.9446 9.64849C11.2058 9.60375 11.474 9.58837 11.7394 9.58837C15.0967 9.58417 18.4554 9.57998 21.8127 9.59116C22.2269 9.59256 22.6632 9.62053 23.0495 9.75337C24.139 10.1295 24.6003 11.3698 24.0375 12.5178C23.7554 13.0925 23.3302 13.6057 22.9203 14.1049C20.1911 17.4314 17.448 20.7468 14.6396 24.1502C14.8952 24.1628 15.0689 24.1796 15.2427 24.1796C17.5897 24.181 19.9354 24.1796 22.2824 24.1824C23.4817 24.1838 24.328 24.9543 24.3252 26.0337C24.3238 27.1076 23.4747 27.8823 22.2755 27.8907C21.1304 27.8991 19.9868 27.8907 18.8418 27.8907C16.3613 27.8907 13.8808 27.8963 11.4018 27.8865C10.3331 27.8823 9.52994 27.2768 9.34512 26.3302C9.20755 25.6226 9.4688 25.006 9.89402 24.4635C11.31 22.6569 12.7358 20.8572 14.1601 19.0576C15.6081 17.2273 17.0589 15.3997 18.5069 13.5693C18.5513 13.512 18.5805 13.4421 18.6625 13.2953H18.6639Z" fill="black"/>
<path d="M23.358 30.1317C25.3271 30.1443 27.1642 30.6295 28.8317 31.695C29.8336 32.3354 30.1282 33.3911 29.5821 34.3112C29.0318 35.2383 27.8075 35.5291 26.8237 34.9251C25.5925 34.17 24.2988 33.6624 22.8299 33.7855C22.4756 33.8148 22.1101 33.8987 21.785 34.0385C21.293 34.2497 20.9359 34.6007 20.8998 35.1991C20.8609 35.8465 21.1694 36.2982 21.728 36.5037C22.6715 36.8519 23.6457 37.1134 24.6031 37.4238C25.5967 37.7468 26.6125 38.0195 27.5699 38.4278C29.5015 39.2528 30.509 40.7755 30.4812 42.8842C30.452 45.0362 29.4959 46.6848 27.5143 47.6062C25.0978 48.7319 22.6146 48.5962 20.1688 47.7475C19.1558 47.3965 18.1956 46.847 17.2729 46.2848C16.2348 45.6528 16.0111 44.5244 16.6309 43.6113C17.2548 42.6926 18.5166 42.4675 19.456 43.1638C20.6163 44.0224 21.8697 44.6586 23.3205 44.7118C24.0431 44.7383 24.7907 44.6111 25.4966 44.4307C26.0942 44.2783 26.4374 43.7791 26.461 43.1415C26.486 42.508 26.1344 42.0732 25.5703 41.8704C24.6948 41.5572 23.7971 41.3083 22.9119 41.0258C21.8628 40.6902 20.7914 40.4078 19.7742 39.9911C17.9455 39.243 16.9408 37.8419 16.8685 35.8368C16.7921 33.7379 17.6536 32.1327 19.4643 31.0616C20.6663 30.3498 21.9892 30.1331 23.358 30.1289V30.1317Z" fill="black"/>
<path d="M84.7124 30.1578C86.669 30.1229 88.6534 30.6668 90.4168 31.9546C91.3701 32.651 91.6522 33.8479 91.0546 34.7219C90.3973 35.6839 89.1217 35.909 88.1337 35.1707C86.5495 33.985 84.8097 33.5403 82.9073 34.0829C80.0489 34.8981 78.5537 38.0163 79.475 40.9946C80.1337 43.1242 82.1972 44.8008 84.8208 44.605C86.1562 44.5058 87.2818 44.0317 88.3129 43.2165C89.1147 42.5831 90.0763 42.5859 90.7906 43.169C91.7133 43.9227 91.7272 45.2692 90.7989 46.0789C89.4413 47.2646 87.8682 47.9903 86.0826 48.242C83.7953 48.5636 81.583 48.3329 79.5528 47.1653C76.9264 45.6552 75.4437 43.3536 75.1171 40.3249C74.7948 37.3367 75.6591 34.7428 77.8311 32.6636C79.6876 30.8877 81.9596 30.1257 84.711 30.1578H84.7124Z" fill="black"/>
<path d="M66.6613 33.8976C65.3912 33.8976 64.2101 33.9102 63.0303 33.8934C62.1534 33.8808 61.3836 33.2963 61.1779 32.5273C60.9667 31.7358 61.2613 30.8745 61.9617 30.4746C62.2771 30.2942 62.6759 30.1795 63.0372 30.1781C66.8142 30.1571 70.5926 30.1613 74.3709 30.1655C75.466 30.1655 76.3094 30.9933 76.2914 32.0197C76.2747 33.0572 75.4396 33.8808 74.3654 33.8948C73.3537 33.9088 72.3435 33.8976 71.3318 33.8976C71.1456 33.8976 70.9608 33.8976 70.7149 33.8976C70.7149 34.1199 70.7149 34.2863 70.7149 34.4527C70.7149 38.347 70.7149 42.2412 70.7149 46.1355C70.7149 47.3954 69.8797 48.3476 68.743 48.3784C67.6118 48.4077 66.6683 47.4163 66.6655 46.1663C66.6586 42.3098 66.6614 38.4546 66.66 34.5981C66.66 34.3912 66.66 34.1828 66.66 33.8976H66.6613Z" fill="black"/>
<path d="M29.1598 18.74C29.1598 21.0976 29.1653 23.4551 29.1584 25.8126C29.1542 27.4179 27.7437 28.3449 26.2666 27.7199C25.4926 27.3927 25.1271 26.7649 25.1257 25.9538C25.1146 21.1423 25.1132 16.3322 25.1285 11.5206C25.1313 10.3796 26.0373 9.5672 27.1907 9.59237C28.3315 9.61754 29.1473 10.409 29.1542 11.5514C29.1681 13.9467 29.1584 16.3433 29.1584 18.7386H29.1611L29.1598 18.74Z" fill="black"/>
<path d="M60.6648 39.3049C60.6648 41.5855 60.6607 43.8662 60.6648 46.1468C60.6662 47.1004 60.291 47.8247 59.4044 48.2093C58.1552 48.7518 56.7072 47.808 56.6836 46.4209C56.6558 44.7541 56.6739 43.0859 56.6725 41.4191C56.6725 38.3723 56.6752 35.324 56.6697 32.2771C56.6683 31.4101 57.0227 30.7501 57.7897 30.3614C58.4706 30.016 59.1599 30.0636 59.788 30.5166C60.4272 30.9767 60.6732 31.6227 60.669 32.4057C60.6551 34.7059 60.6648 37.0047 60.6634 39.3049H60.6648Z" fill="black"/>
</g>
<defs>
<clipPath id="clip0_440_4409">
<rect width="117" height="58" fill="white"/>
</clipPath>
</defs>
</svg>
